<svg width="53" height="52" viewBox="0 0 53 52" fill="none" xmlns="http://www.w3.org/2000/svg"><path fill-rule="evenodd" clip-rule="evenodd" d="M3.313 25.637c0 5.95 2.442 11.656 6.791 15.863 4.349 4.207 10.246 6.57 16.396 6.57s12.047-2.363 16.396-6.57c4.349-4.207 6.791-9.913 6.791-15.863 0-5.95-2.442-11.655-6.791-15.862-4.349-4.207-10.246-6.57-16.396-6.57s-12.047 2.363-16.396 6.57c-4.349 4.207-6.791 9.913-6.791 15.862zm49.687 0c0 6.8-2.792 13.32-7.762 18.129-4.97 4.808-11.71 7.509-18.738 7.509-7.028 0-13.769-2.701-18.738-7.51C2.792 38.959 0 32.438 0 25.638c0-6.799 2.792-13.32 7.762-18.128S19.472 0 26.5 0c7.028 0 13.769 2.701 18.738 7.509C50.208 12.317 53 18.838 53 25.637zm-14.906-1.602c.439 0 .86.169 1.17.47.311.3.486.707.486 1.133 0 .424-.175.832-.485 1.132-.31.301-.732.47-1.171.47h-19.19l7.112 6.877a1.56 1.56 0 010 2.269 1.664 1.664 0 01-.538.348 1.706 1.706 0 01-1.807-.348l-9.937-9.614a1.6 1.6 0 01-.36-.52 1.557 1.557 0 01.36-1.749l9.937-9.614c.311-.3.733-.47 1.173-.47.44 0 .861.17 1.172.47.311.3.486.709.486 1.134 0 .426-.175.834-.486 1.135l-7.112 6.877h19.19z" fill="#397ABC"/></svg>