<svg width="53" height="54" viewBox="0 0 53 54" fill="none" xmlns="http://www.w3.org/2000/svg"><g clip-path="url(#clip0_1:393)"><path d="M26.5 0c7.028 0 13.769 2.845 18.738 7.908C50.208 12.972 53 19.84 53 27c0 7.16-2.792 14.028-7.762 19.092C40.268 51.155 33.528 54 26.5 54c-7.028 0-13.769-2.845-18.738-7.908C2.792 41.028 0 34.16 0 27c0-7.16 2.792-14.028 7.762-19.092C12.732 2.845 19.472 0 26.5 0zM14.906 25.313c-.439 0-.86.177-1.17.494A1.696 1.696 0 0013.25 27c0 .448.175.877.485 1.193.31.317.732.494 1.171.494h19.19l-7.112 7.243a1.693 1.693 0 00-.486 1.195 1.718 1.718 0 00.486 1.195 1.658 1.658 0 001.172.495 1.632 1.632 0 001.173-.495l9.937-10.125A1.69 1.69 0 0039.753 27a1.715 1.715 0 00-.487-1.195L29.33 15.68a1.643 1.643 0 00-1.173-.495c-.44 0-.861.178-1.172.495a1.706 1.706 0 00-.486 1.195c0 .448.175.878.486 1.195l7.112 7.242h-19.19z" fill="#397ABC"/></g><defs><clipPath id="clip0_1:393"><path fill="#fff" transform="matrix(-1 0 0 1 53 0)" d="M0 0h53v54H0z"/></clipPath></defs></svg>